<?xml version="1.0" encoding="UTF-8"?><svg id="Layer_1" xmlns="http://www.w3.org/2000/svg" viewBox="0 0 494.53 276.1"><defs><style>.cls-1{fill:#040404;}.cls-2{fill:#010101;}.cls-3{fill:#fff;}</style></defs><path class="cls-2" d="M119.42,13.52c1.25-.19,2.66-.32,4.17-.37,1.54-.05,3.22-.07,4.97-.07h11.28v92.91c0,6.4-1.13,8.65-2.07,9.41-1.42,1.14-3.91,1.72-7.42,1.72h-.64v3.21h31.51v-3.21h-.64c-3.22,0-5.65-.58-7.22-1.74-1.04-.76-2.27-3.01-2.27-9.39V13.08h11.28c1.75,0,3.42.02,4.97.07,1.51.05,2.91.17,4.17.37,1.26.2,2.43.46,3.48.8,1.03.33,1.95.78,2.73,1.33.79.56,1.5,1.22,2.11,1.97.6.74,1.15,1.69,1.62,2.82.48,1.15.87,2.48,1.15,3.97.29,1.49.54,3.23.74,5.16.2,1.91.3,4.07.3,6.41v.64h3.66V7.34h-83.8v29.28h3.66v-.64c0-2.37.1-4.52.29-6.41.2-1.91.47-3.64.81-5.14.34-1.5.73-2.85,1.17-4.01.42-1.11.95-2.05,1.6-2.78.66-.75,1.4-1.42,2.2-1.98.78-.55,1.7-1,2.73-1.33,1.05-.33,2.22-.6,3.48-.8ZM130.35,119.7h30.24-30.24ZM152.12,114.93c-1.1-1.64-1.66-4.61-1.66-8.94V12.45h0v93.55c0,4.34.56,7.3,1.66,8.94ZM171.61,12.89c-1.29-.2-2.71-.32-4.25-.37-.77-.02-1.57-.04-2.4-.06.83.01,1.63.03,2.4.06,1.54.05,2.95.18,4.25.37,1.29.2,2.48.47,3.58.82.62.2,1.18.44,1.72.72-.54-.28-1.1-.52-1.72-.72-1.09-.35-2.29-.62-3.57-.82ZM179.54,16.38c.27.27.54.54.78.83.14.18.28.37.41.56-.13-.19-.27-.38-.41-.56-.24-.3-.51-.56-.78-.83ZM183.23,24.29c-.3-1.54-.7-2.9-1.19-4.1-.35-.84-.74-1.57-1.16-2.21.42.64.81,1.37,1.16,2.21.5,1.19.89,2.56,1.19,4.1.3,1.54.54,3.28.74,5.21.04.4.07.81.11,1.22-.03-.41-.07-.82-.11-1.22-.2-1.94-.45-3.67-.74-5.21ZM184.27,35.98h0s2.38,0,2.38,0h0s-2.38,0-2.38,0ZM104.13,35.98V7.98h0v28h2.38c0-.91.02-1.78.05-2.63-.03.85-.05,1.72-.05,2.63h-2.38ZM106.9,28.72c.1-.89.22-1.73.36-2.53-.14.8-.26,1.64-.36,2.53ZM110.53,17.21c-.7.8-1.27,1.79-1.71,2.98-.22.59-.43,1.23-.63,1.91.2-.68.41-1.32.63-1.91.45-1.19,1.02-2.18,1.71-2.98.3-.35.63-.67.96-.98-.33.31-.66.63-.96.98ZM113.84,14.54c.59-.32,1.21-.61,1.91-.83,1.09-.35,2.28-.62,3.57-.82,1.29-.2,2.7-.32,4.25-.37.78-.02,1.58-.04,2.42-.06-.84.01-1.65.03-2.42.06-1.54.05-2.96.17-4.25.37-1.29.2-2.48.47-3.58.82-.69.22-1.32.51-1.91.83Z"/><path class="cls-2" d="M198.04,23.62c1.67,0,2.74.31,3.08.9.29.49.58,2.06-.7,7.07l-21.81,87.95-.2.79h22.7l.12-.48,13.24-52.98c3.27-3.62,6.61-6.58,9.91-8.8,3.28-2.2,6.01-3.32,8.1-3.32s2.68,1.11,2.87,1.95c.35,1.52.11,3.74-.69,6.61l-12.45,45.73c-1.28,4.53-1.15,7.69.39,9.65,1.52,1.92,3.99,2.9,7.35,2.9,4.37,0,8.73-1.13,12.95-3.36,4.16-2.2,8.13-4.78,11.77-7.69l.4-.32-.23-.46-.84-1.68-.31-.62-.59.36c-1.16.72-2.34,1.28-3.51,1.69-1.14.39-2.1.59-2.87.59-.7,0-1.12-.24-1.39-.77-.21-.42-.34-1.36.19-3.48l11.6-42.07c.38-1.52.69-3.04.92-4.54.24-1.52.36-3.02.36-4.43s-.12-2.8-.36-4.1c-.24-1.3-.61-2.52-1.09-3.63-.49-1.12-1.08-2.13-1.76-3-.69-.88-1.53-1.68-2.51-2.37-.99-.69-2.08-1.21-3.26-1.56-1.17-.34-2.46-.51-3.81-.51-4.58,0-9.39,1.71-14.27,5.08-4.36,3.01-9.22,7.16-14.48,12.36l12.17-48.94.31-1.23-1.17.49-31.88,13.28-.33.14-.05.35-.28,1.82-.12.81.81-.08c.62-.06,1.19-.09,1.69-.09ZM201.1,23.63c-.19-.13-.41-.24-.67-.33.26.09.48.2.67.33ZM200.31,23.27c-.25-.08-.52-.14-.83-.18.3.04.58.1.83.18ZM199.27,23.06c-.35-.04-.73-.06-1.14-.07.42,0,.8.02,1.14.07ZM197.57,23c-.1,0-.19,0-.29,0,.1,0,.19,0,.29,0ZM201.23,23.72c.18.14.34.29.44.47-.11-.18-.26-.33-.44-.47ZM179.23,119.7h21.39-21.39ZM215.18,65.21c2.94-3.1,5.89-5.68,8.86-7.67-2.97,2-5.92,4.58-8.86,7.67ZM235.24,55.07c.36.38.61.88.75,1.49.09.41.15.86.17,1.35-.02-.49-.07-.94-.17-1.35-.14-.61-.39-1.11-.75-1.49ZM223.13,118.3c-.27-.34-.47-.74-.65-1.17.17.43.38.83.65,1.17.35.44.75.83,1.21,1.16-.46-.33-.86-.72-1.21-1.16ZM229.98,120.95h0c1.07,0,2.14-.07,3.2-.21-1.06.14-2.13.21-3.2.21ZM249.84,110.12c1.21-.42,2.42-1,3.64-1.75l.84,1.68c-3.64,2.89-7.53,5.43-11.68,7.62-2.59,1.37-5.21,2.31-7.86,2.82,2.65-.51,5.27-1.46,7.86-2.82,4.15-2.19,8.04-4.73,11.67-7.62l-.84-1.68c-1.21.75-2.43,1.33-3.64,1.75-.1.03-.19.06-.28.09.1-.03.19-.05.28-.09ZM246.76,110.75c-.78,0-1.35-.27-1.74-.79.39.52.96.79,1.74.79ZM257.57,58.23c.15-1.16.24-2.31.24-3.41,0-1.05-.09-2.05-.22-3.02.13.97.22,1.97.22,3.02,0,1.11-.1,2.25-.24,3.41ZM254.67,44.4c-.64-.81-1.41-1.54-2.32-2.17-.81-.57-1.71-.99-2.66-1.31.95.32,1.85.74,2.66,1.31.9.63,1.67,1.36,2.32,2.17ZM231.73,45.24c1.2-.83,2.39-1.55,3.57-2.17-1.18.62-2.37,1.34-3.57,2.17-3.6,2.48-7.5,5.71-11.71,9.69,4.2-3.98,8.1-7.21,11.71-9.69ZM219.37,44.46l9.07-36.49h0l-9.07,36.49ZM196.29,23.08s.03,0,.04,0c-.02,0-.03,0-.04,0h0Z"/><path class="cls-2" d="M271.3,91.22v14.58h7.29v7.29h7.29v7.25h43.28v-7.25h7.29v-7.29h7.29v-8.56h-8.56v7.29h-7.29v7.29h-33.44v-7.29h-7.29v-14.58h-7.29v-20.55h63.88v-15.85h-7.29v-7.29h-7.29v-7.29h-43.28v7.29h-7.29v7.29h-7.29v14.58h-7.24v23.1h7.24ZM271.94,90.58h0v14.58h0v-14.58ZM321.24,54.81h6.65v6.02h-48.02v-6.02h7.29v-7.29h33.44v7.29h.64ZM328.53,54.18h-7.29,7.29ZM279.23,105.16h0v7.29h0v-7.29ZM343.11,97.87v7.29h0v-7.29h-7.29,7.29ZM335.82,105.16h0v7.29h0v-7.29h-7.29,7.29ZM328.53,112.45h0v7.25h-42.01v-7.25h0v7.25h42.01v-7.25h-34.72,34.72ZM293.81,105.16h-7.29,7.29ZM286.52,90.58h-7.29,7.29ZM343.11,68.76h-63.88,63.87v-14.58h0v14.58ZM335.82,54.18h0v-7.29h0v7.29ZM328.53,46.89h0v-7.29h0v7.29ZM286.52,39.6v7.29h34.72-34.72v-7.29h0ZM279.23,46.89v7.29h7.29-7.29v-7.29h0ZM271.94,54.18v14.58h0v-14.58h0Z"/><path class="cls-2" d="M102.75,219.73c-.86-1.99-1.67-5.19-2.4-9.5l-15.8-91.45-.09-.53h-3.56l-.18.31-53.83,91.72c-2.76,4.69-5.07,7.93-6.88,9.65-1.76,1.67-3.85,2.48-6.41,2.48h-.51l-.11.49-.42,1.82-.18.78h32.25l.08-.54.28-1.82.11-.68-.69-.05c-5.15-.35-8.42-1.68-9.7-3.94-1.27-2.25-.1-6.63,3.5-13.01l7.36-12.82h28.59l2.85,17.78c.71,4.81.39,8.05-.97,9.62-1.36,1.57-3.88,2.37-7.49,2.37h-.51l-.11.49-.42,1.82-.18.78h40.18l.11-.49.42-1.82.18-.78h-.8c-2.35,0-3.88-.88-4.66-2.69ZM101.27,217.42c-.23-.8-.46-1.68-.69-2.65.22.98.45,1.86.69,2.65ZM20.43,220.4c1.87-1.77,4.19-5.03,6.99-9.79l53.83-91.72h2.66l6.18,35.75-6.18-35.75h-2.66l-53.83,91.72c-2.8,4.75-5.12,8.02-6.99,9.79-1.27,1.21-2.74,1.99-4.4,2.38,1.66-.38,3.13-1.17,4.4-2.38ZM73.1,185.92h-23.74l18.55-32.44,5.19,32.44ZM48.26,186.56h25.59-25.59l19.99-34.96-19.99,34.96ZM45.18,192.01l-2.04,3.55,2.04-3.55h0ZM33.57,216.47s0,.06,0,.08c0-.03,0-.06,0-.08ZM13.16,224.87l.42-1.82h0l-.42,1.82h30.9H13.16ZM35.53,220.42c1.45,1.19,3.65,1.99,6.59,2.4-2.94-.41-5.14-1.21-6.59-2.4ZM33.88,213.92c.22-.96.57-2.03,1.03-3.19-.46,1.16-.81,2.23-1.03,3.19ZM77.62,210.33l-2.94-18.32h0l2.94,18.32c.56,3.78.49,6.62-.21,8.53-.23.64-.54,1.17-.91,1.6h0c.37-.43.68-.97.91-1.6.7-1.91.77-4.76.21-8.53ZM76.49,220.48c-.63.72-1.48,1.28-2.52,1.7,1.04-.42,1.89-.98,2.52-1.7ZM68.11,224.87h38.87-38.87ZM107.31,223.47l.1-.42h0l-.1.42Z"/><path class="cls-2" d="M189.19,231.48v-7.24h-7.29v-7.25h-43.69v-7.29h-7.29v-13.31h36.4v-7.29h7.29v-7.29h7.29v-23.1h-7.29v-6.02h14.58v-8.56h-59.55v7.29h-7.29v7.29h-7.24v23.1h7.24v7.29h7.29v6.02h-7.29v7.29h-7.24v15.85h7.24v7.25h7.29v5.97h-7.29v7.29h-7.24v15.85h7.24v7.29h7.29v7.29h44.97v-7.29h7.29v-7.29h7.29v-7.29h7.29v-15.85h-7.29ZM181.27,217.63v7.25h0v-7.25h-43.69,43.69ZM137.57,253.35h-6.65v-20.6h42.42v7.29h7.29v13.31h-7.29v7.29h-35.13v-7.29h-.64ZM130.28,253.99h7.29-7.29ZM137.57,210.34h-7.29,7.29ZM137.57,188.47h21.87v-7.29h7.25-7.25v7.29h-21.87ZM166.69,159.35h-7.25v-7.29h-21.87,21.87v7.29h7.25ZM138.21,159.99v-7.29h20.6v7.29h7.25v20.55h-7.25v7.29h-20.6v-7.29h-7.29v-20.55h7.29ZM137.57,159.35h-7.29,7.29ZM130.28,181.18h7.29-7.29ZM166.69,195.76v-7.29h0v7.29h0ZM173.98,188.47v-7.29h0v7.29h0ZM181.27,181.18h0v-21.82h0v21.82ZM188.56,152.06h-14.58v7.29h0v-7.29h14.58v-7.29h0v7.29ZM130.28,144.77v7.29h0v-7.29h0ZM123,152.06v7.29h0v-7.29h0ZM123,181.18h0v7.29h0v-7.29ZM123,203.05v-7.29h7.29v-7.29h0v7.29h-7.29v7.29h-7.24,7.24ZM123,239.41v-7.29h7.29v-7.24h-7.29v-7.25h0v7.25h7.29v7.24h-7.29v7.29h-7.24,7.24ZM123,253.99h0v7.29h0v-7.29ZM130.28,261.27h0v7.29h0v-7.29ZM173.98,268.56v-7.29h-36.4,36.4v7.29h0ZM181.27,261.27v-7.29h-7.29,7.29v7.29h0ZM188.56,253.99v-7.29h0v7.29h0ZM195.85,246.7h0v-14.58h-7.29v-7.24h0v7.24h7.29v14.58Z"/><path class="cls-2" d="M256.89,194.21l-.54-.15-1.96-.56-.59-.17-.19.59c-2,6.28-4.95,11.05-8.75,14.17-3.78,3.1-7.97,4.68-12.46,4.68-6.76,0-12.49-2.88-17.05-8.57-4.59-5.73-6.92-14.06-6.92-24.77v-1.6h48.4l-.02-.66c-.28-9.53-3.14-17.31-8.49-23.13-5.28-5.75-12.34-8.67-20.96-8.67h-.41c-1.61,0-3.27.15-4.92.43-1.66.28-3.35.74-5.01,1.36-1.66.62-3.31,1.36-4.9,2.2-1.61.85-3.2,1.88-4.71,3.07-1.51,1.18-2.99,2.52-4.4,3.97-1.42,1.47-2.74,3.1-3.92,4.84-1.17,1.74-2.27,3.64-3.26,5.67-.99,2.03-1.85,4.2-2.55,6.45-.71,2.26-1.26,4.72-1.63,7.3-.38,2.58-.57,5.31-.57,8.13,0,2.26.14,4.5.42,6.65.28,2.18.74,4.3,1.35,6.32.61,2.01,1.35,3.99,2.2,5.88.85,1.89,1.86,3.69,2.99,5.34,1.14,1.66,2.44,3.2,3.86,4.57,1.42,1.38,2.98,2.63,4.64,3.71,1.66,1.09,3.46,2.03,5.36,2.79,1.88.75,3.89,1.35,5.98,1.78,2.08.43,4.33.64,6.7.64,8.71,0,15.97-2.89,21.57-8.58,5.57-5.66,9.16-13.45,10.66-23.14l.09-.56ZM254.77,194.27l-.56-.16h0l.56.16ZM241.2,211.26c-2.77,1.42-5.7,2.15-8.8,2.15-5.27,0-9.9-1.68-13.87-5.02,3.97,3.34,8.6,5.02,13.87,5.02,3.1,0,6.03-.73,8.8-2.15ZM209.88,194.89c-.42-1.36-.81-2.76-1.1-4.26.29,1.5.68,2.9,1.1,4.26ZM214.71,157.05c2.93-3.47,6.21-5.23,9.72-5.23,4.37,0,7.58,1.71,9.81,5.23,2.18,3.45,3.54,8.37,4.05,14.61h-29.34c.95-6.3,2.89-11.21,5.76-14.61ZM232.82,154.29s.03.03.05.05c-.02-.02-.03-.03-.05-.05ZM236.68,160.62c.18.47.34.94.5,1.44-.16-.49-.32-.97-.5-1.44ZM233.26,146.52c.53.1,1.04.23,1.55.35-.52-.12-1.02-.26-1.55-.35ZM236.09,147.17c.52.15,1.01.34,1.51.52-.5-.18-.99-.37-1.51-.52ZM238.75,148.09c.5.21.98.45,1.46.69-.48-.24-.96-.48-1.46-.69ZM211.22,161.4c-1.42,3.02-2.42,6.65-3,10.9h0c.58-4.25,1.58-7.89,3-10.9.46-.98.98-1.89,1.54-2.74-.55.85-1.07,1.75-1.54,2.74ZM256.17,177.19c-.14-4.71-.9-8.95-2.29-12.74,1.39,3.79,2.15,8.03,2.29,12.74h0ZM248.2,154.88c-.12-.13-.22-.28-.34-.41h0c.12.13.22.28.34.41ZM241.26,149.28c.49.27.96.58,1.44.89-.47-.3-.94-.62-1.44-.89ZM243.62,150.74c.51.36.99.76,1.48,1.16-.49-.4-.97-.8-1.48-1.16ZM245.81,152.47c.7.62,1.38,1.29,2.04,2-.65-.71-1.33-1.38-2.04-2ZM226.95,146.01c.14,0,.27,0,.41,0,.5,0,.97.04,1.46.06-.62-.02-1.23-.07-1.87-.06-1.59,0-3.19.14-4.82.42,1.63-.28,3.24-.42,4.82-.42ZM231.9,146.33c-.53-.07-1.06-.16-1.61-.2.55.05,1.08.13,1.61.2ZM212.41,149.93c.79-.42,1.59-.81,2.39-1.17-.8.36-1.6.75-2.39,1.17-.53.28-1.04.6-1.56.92.52-.32,1.03-.64,1.56-.92ZM199.61,161.6c.39-.57.81-1.11,1.22-1.65-.41.54-.83,1.08-1.22,1.65-.4.6-.78,1.23-1.16,1.86.38-.63.76-1.27,1.16-1.86ZM196.4,167.19c.3-.61.62-1.17.93-1.75-.31.58-.63,1.15-.93,1.75-.42.87-.81,1.77-1.18,2.68.37-.91.76-1.81,1.18-2.68ZM192.37,180.22c-.03.18-.07.35-.1.53-.03.21-.04.43-.07.64.03-.21.04-.43.07-.64.03-.18.07-.35.1-.53ZM191.94,193.35c.06.68.11,1.36.2,2.02.12.89.28,1.76.45,2.62-.17-.86-.33-1.73-.45-2.62-.09-.67-.14-1.35-.2-2.02ZM202.34,217.11c-.95-.91-1.8-1.92-2.62-2.96.82,1.04,1.68,2.05,2.62,2.96,1.4,1.35,2.91,2.56,4.54,3.64.41.27.84.5,1.27.74-.42-.25-.86-.47-1.27-.74-1.63-1.07-3.15-2.28-4.54-3.64ZM221.29,225.7c-1.14-.1-2.23-.26-3.29-.48,1.06.22,2.16.38,3.29.48ZM245.69,217.46c-3.44,3.5-7.48,5.9-12.11,7.21,4.64-1.31,8.68-3.71,12.11-7.21,1.18-1.2,2.25-2.51,3.24-3.89-1,1.38-2.06,2.69-3.24,3.89ZM252.79,206.71c1.55-3.59,2.69-7.59,3.38-12.04h0c-.69,4.45-1.83,8.45-3.38,12.04Z"/><path class="cls-2" d="M328.64,151.92c-.44-1.07-.98-2.04-1.62-2.87-.65-.85-1.46-1.59-2.4-2.18-.93-.59-2-1.06-3.17-1.4-1.17-.34-2.5-.51-3.95-.51-1.25,0-2.59.15-3.97.43-1.38.29-2.8.72-4.23,1.29-1.41.56-2.85,1.26-4.27,2.07-1.41.8-2.84,1.71-4.25,2.69-1.41.98-2.85,2.08-4.3,3.24-1.45,1.17-2.89,2.4-4.29,3.66-1.39,1.25-2.77,2.56-4.08,3.87-.75.75-1.51,1.52-2.26,2.31l4.73-19.04.33-1.34-1.23.61-18.32,9.09-.28.14-.06.31-.28,1.4-.18.9.91-.15c.92-.15,1.73-.23,2.4-.23,2.19,0,2.28.76,2.32,1.01.17,1.36-.29,4.42-1.39,9.07l-14.26,58.44-.19.79h10.54l.12-.48,12.69-51.73c4.67-5.39,9.82-10.16,15.32-14.19,5.46-4,10.32-6.03,14.44-6.03,3.13,0,4.92,1.25,5.46,3.83.58,2.77.28,6.19-.9,10.18l-14.12,50.06c-.89,3.06-.79,5.43.3,7.03,1.1,1.62,2.81,2.45,5.07,2.45,2.62,0,5.41-.85,8.29-2.53,2.83-1.65,5.41-3.63,7.68-5.9l.34-.34-.23-.42-.7-1.26-.34-.61-.58.39c-1.72,1.18-3.29,2.02-4.68,2.51-1.37.49-2.45.73-3.21.73s-1.05-.33-1.19-.57c-.14-.26-.31-.97.13-2.84l13.83-48.35c.38-1.43.69-2.86.93-4.27.24-1.44.36-2.81.36-4.09s-.1-2.54-.29-3.74c-.2-1.22-.52-2.37-.95-3.43ZM318.38,154.32c-.05-.06-.09-.13-.14-.18.05.06.09.13.14.18ZM309.53,147.27c1.4-.56,2.77-.98,4.12-1.26.68-.14,1.35-.25,2-.32-.65.07-1.31.17-2,.32-1.35.28-2.73.7-4.12,1.26-.7.28-1.4.59-2.1.93.7-.34,1.4-.65,2.1-.93ZM292.61,158.8c1.4-1.26,2.82-2.47,4.26-3.64,1.44-1.16,2.87-2.24,4.26-3.22.44-.31.87-.59,1.31-.87-.44.29-.87.57-1.31.87-1.4.98-2.82,2.05-4.26,3.22-1.45,1.17-2.87,2.38-4.26,3.64-.56.5-1.07,1.02-1.61,1.53.54-.51,1.06-1.03,1.61-1.53ZM284.64,166.7l5.31-21.39h0l-5.31,21.39ZM276.41,156.29s-.05-.06-.08-.08c.03.03.05.05.08.08ZM276.81,157.13s0,0,0,0c0,0,0,0,0,0,.09.72.02,1.86-.21,3.41.23-1.55.3-2.69.21-3.41ZM276.62,156.57s.04.07.06.11c-.02-.04-.04-.08-.06-.11ZM276.25,152.11l-4.61,2.29h0l4.61-2.29ZM275.93,155.94s-.07-.03-.11-.04c.03.01.07.03.11.04ZM275.39,155.74c-.06-.02-.12-.03-.18-.04.06.01.12.03.18.04ZM274.61,155.6s-.05,0-.08-.01c.03,0,.05,0,.08.01ZM273.75,155.57c-.23,0-.48.02-.73.04.25-.02.5-.03.73-.04ZM271.44,155.79c.42-.07.82-.12,1.2-.16-.37.04-.77.09-1.2.16ZM261.15,224.87h9.23-9.23ZM298.62,158.59c-4.91,3.6-9.48,7.77-13.74,12.45,4.26-4.68,8.83-8.85,13.74-12.45.7-.51,1.39-.99,2.07-1.44-.68.45-1.37.93-2.07,1.44ZM319.52,156.78c.53,2.53.36,5.52-.5,8.98.86-3.46,1.03-6.45.5-8.98ZM304.49,217.32l11.58-41.03-11.58,41.03c-.21.72-.36,1.4-.46,2.03.1-.63.25-1.31.46-2.03ZM303.98,221.89c-.04-.25-.06-.51-.07-.78,0,.27.03.53.07.78.06.4.16.75.3,1.09-.13-.34-.24-.7-.3-1.09ZM304.42,223.32s-.03-.05-.04-.07c.01.03.03.05.04.07ZM304.9,224.05c.41.53.9.96,1.48,1.27-.58-.31-1.07-.74-1.48-1.27ZM306.57,225.45c.08.04.17.05.26.08-.08-.03-.18-.05-.26-.08ZM317.22,223.54c-2.8,1.63-5.45,2.45-7.97,2.45h0c2.52,0,5.17-.82,7.97-2.45.39-.23.76-.47,1.14-.71-.38.24-.75.48-1.14.71ZM324.28,216.87l-.22-.39h0l.22.39ZM322.98,217.19c-.92.58-1.8,1.06-2.63,1.43.83-.37,1.7-.86,2.63-1.43ZM314.14,215.64c-.08.34-.14.65-.18.94.05-.3.1-.6.18-.94l6.92-24.19-6.92,24.19ZM329.08,161.59c.1-.86.16-1.71.16-2.51,0-1.26-.09-2.47-.28-3.64-.19-1.16-.49-2.26-.91-3.29-.42-1.03-.93-1.93-1.54-2.73-.42-.55-.93-1.02-1.49-1.46.55.44,1.07.91,1.49,1.46.6.79,1.12,1.7,1.54,2.73.42,1.03.72,2.12.91,3.29.19,1.17.28,2.38.28,3.64,0,.8-.07,1.65-.16,2.51Z"/><path class="cls-2" d="M394.24,225.51v-7.25h7.29v-7.29h7.29v-8.56h-8.56v7.29h-7.29v7.29h-27.84v-7.29h-7.29v-14.58h-7.29v-20.55h7.29v-14.58h7.29v-7.29h20.55v7.29h7.29v7.29h15.85v-8.56h-7.29v-7.29h-7.29v-7.29h-37.68v7.29h-7.29v7.29h-7.29v14.58h-7.25v23.1h7.25v14.58h7.29v7.29h7.29v7.25h37.68ZM393.61,166.64v-7.29h-7.29v-7.29h-21.82v7.29h-7.29v14.58h-7.29v21.82h7.29v14.58h7.29v7.29h29.11v-7.29h7.29v-7.29h7.29-7.29v7.29h-7.29v7.29h-29.11v-7.29h-7.29v-14.58h-7.29v-21.82h7.29v-14.58h7.29v-7.29h21.82v7.29h7.29v7.29h14.58-14.58ZM335.38,173.93h0v21.82h0v-21.82ZM357.2,224.87h36.4-36.4Z"/><path class="cls-2" d="M479.83,148.46c-1.61-2.51-4.28-3.79-7.95-3.79-2.75,0-5.15.85-7.12,2.53-2,1.7-3.02,4.03-3.02,6.92,0,.89.1,1.75.3,2.53.19.77.44,1.51.73,2.19.3.69.67,1.36,1.11,2,.43.62.89,1.22,1.36,1.79.45.54.88,1.11,1.29,1.7.42.61.85,1.2,1.27,1.77.39.52.72,1.07.98,1.63.26.56.48,1.19.66,1.86.17.64.26,1.32.26,2,0,4.08-1.7,9.65-5.04,16.57-3.15,6.52-7.31,13.48-12.37,20.7-.08-1.59-.17-3.2-.26-4.8-.14-2.29-.35-4.65-.63-7.03-.28-2.38-.56-4.78-.84-7.2-.28-2.42-.63-4.85-1.05-7.24-.42-2.35-.86-4.73-1.33-7.08-.47-2.33-.96-4.66-1.47-6.94-.51-2.28-1.05-4.52-1.61-6.66-.56-2.14-1.12-4.21-1.68-6.17-.55-1.94-1.17-3.84-1.83-5.64-.65-1.76-1.31-3.42-1.97-4.93l-.26-.6-.59.28-23.77,11.19-.47.22.13.51.42,1.68.16.63.63-.17c.96-.26,1.79-.4,2.45-.4.59,0,1.05.11,1.36.31.39.26,1.18,1.28,2.11,5.21,2.13,8.71,4.29,18.51,6.43,29.13,2.12,10.54,3.66,23.8,4.59,39.42-3.32,3.57-6.14,6.13-8.37,7.6-2.21,1.46-4.07,2.2-5.52,2.2-.47,0-.91-.08-1.3-.23-.42-.17-.83-.39-1.21-.64-.38-.25-.75-.56-1.09-.9s-.72-.76-1.07-1.21c-.36-.46-.74-.9-1.14-1.35-.38-.42-.77-.87-1.19-1.33-.44-.49-.91-.93-1.4-1.33-.49-.4-1.05-.75-1.65-1.05-.6-.3-1.25-.55-1.93-.74-.7-.2-1.46-.3-2.27-.3-2.48,0-4.74.9-6.72,2.68-2,1.8-3.01,4.21-3.01,7.18s1.05,5.65,3.12,7.72c2.07,2.07,5.19,3.12,9.26,3.12,1.9,0,3.83-.22,5.73-.64,1.9-.43,3.8-1.08,5.65-1.93,1.83-.84,3.69-1.84,5.52-2.97,1.83-1.12,3.64-2.41,5.38-3.82,1.73-1.4,3.46-2.94,5.15-4.58,1.68-1.63,3.36-3.38,4.99-5.2,1.63-1.81,3.26-3.73,4.85-5.69,2.2-2.75,4.41-5.58,6.58-8.4,2.15-2.81,4.27-5.66,6.3-8.47,2.06-2.86,4.02-5.74,5.82-8.56,1.81-2.83,3.58-5.68,5.25-8.47,1.68-2.81,3.24-5.59,4.63-8.29,1.4-2.7,2.65-5.42,3.73-8.09,1.07-2.66,2.02-5.29,2.81-7.81.8-2.54,1.42-5.04,1.84-7.42.42-2.4.64-4.77.64-7.03,0-3-.79-5.75-2.34-8.17ZM462.65,156.5c-.19-.74-.28-1.54-.28-2.38,0-2.7.93-4.85,2.8-6.43.23-.2.47-.38.72-.56-.24.17-.48.36-.72.56-1.87,1.59-2.8,3.73-2.8,6.43,0,.84.09,1.63.28,2.38.19.75.42,1.44.7,2.1-.28-.65-.51-1.35-.7-2.1ZM463.87,159.62s-.03-.04-.04-.07c.01.02.03.04.04.07ZM468.32,165.73c-.42-.56-.84-1.14-1.26-1.75-.42-.6-.86-1.19-1.33-1.75-.29-.34-.54-.71-.81-1.07.27.36.53.73.81,1.07.47.56.91,1.14,1.33,1.75.42.61.84,1.19,1.26,1.75.42.56.77,1.14,1.05,1.75,0,0,0,0,0,0,0,0,0,0,0,0-.28-.6-.63-1.19-1.05-1.75ZM465.24,188.45c.54-1.11,1.01-2.17,1.47-3.21-.45,1.04-.93,2.1-1.47,3.21-1.04,2.15-2.19,4.33-3.43,6.55,1.24-2.22,2.39-4.41,3.43-6.55ZM451.69,209.49c.02.42.04.85.06,1.26h0c-.02-.41-.04-.84-.06-1.26ZM450.35,193.52c-.14-1.2-.28-2.39-.42-3.6-.1-.84-.21-1.67-.33-2.51.11.83.23,1.67.33,2.51.14,1.21.28,2.4.42,3.6ZM449.28,185.22c-.13-.84-.26-1.67-.4-2.5-.21-1.19-.44-2.35-.66-3.53.22,1.18.45,2.34.66,3.53.15.83.27,1.67.4,2.5ZM415.25,156.64l23.77-11.19h0l-23.77,11.19.42,1.68-.42-1.68ZM428.82,193.06c-2.15-10.67-4.29-20.39-6.43-29.15-.75-3.17-1.54-5.03-2.38-5.59-.11-.08-.27-.12-.4-.17.14.06.29.1.4.17.84.56,1.63,2.43,2.38,5.59,2.14,8.76,4.29,18.48,6.43,29.15.27,1.33.53,2.71.78,4.12-.25-1.41-.51-2.79-.78-4.12ZM433.43,232.84c-.28-4.81-.63-9.35-1.02-13.68.39,4.33.74,8.87,1.02,13.68-1.28,1.38-2.48,2.61-3.6,3.69,1.12-1.08,2.32-2.31,3.6-3.69ZM424.76,240.74c.38-.25.78-.54,1.19-.85-.41.31-.81.6-1.19.85-1.17.77-2.24,1.35-3.22,1.73.98-.38,2.05-.96,3.22-1.73ZM426.54,246.16s0,0,0,0c0,0,0,0,0,0ZM417.35,242.77c.16.07.34.1.51.15-.17-.04-.35-.08-.51-.15-.47-.19-.91-.42-1.33-.7,0,0,0,0,0,0,0,0,0,0,0,0,.42.28.86.51,1.33.7ZM410.08,235.92c.47.37.91.79,1.33,1.26.42.47.82.91,1.19,1.33.37.42.74.86,1.12,1.33-.37-.47-.75-.91-1.12-1.33-.37-.42-.77-.86-1.19-1.33-.42-.47-.86-.89-1.33-1.26-.46-.37-.98-.7-1.53-.98.56.28,1.07.6,1.53.98ZM408.54,234.94c-.56-.28-1.16-.51-1.81-.7-.13-.04-.27-.05-.4-.08.13.03.27.05.4.08.65.19,1.26.42,1.81.7ZM404.66,253.22c-.12-.02-.24-.04-.35-.06.12.02.23.04.35.06ZM398.34,236.48c.79-.71,1.62-1.26,2.48-1.66-.87.41-1.7.96-2.48,1.66-.97.87-1.68,1.89-2.14,3.06.47-1.17,1.18-2.19,2.14-3.06ZM398.48,250.46c-1.06-1.06-1.83-2.27-2.31-3.61.49,1.34,1.25,2.54,2.31,3.61.24.24.5.47.78.69-.28-.21-.54-.44-.78-.69ZM412.88,252.77c-1.38.31-2.76.5-4.13.58,1.38-.08,2.75-.27,4.13-.58.26-.06.52-.13.79-.2-.26.07-.52.14-.79.2ZM444.06,228.79c-.45.56-.91,1.1-1.36,1.64.46-.55.91-1.09,1.36-1.64,2.22-2.78,4.4-5.56,6.53-8.34-2.13,2.78-4.31,5.56-6.53,8.34ZM467.97,194.95c-1.68,2.8-3.43,5.62-5.24,8.46-.68,1.07-1.4,2.14-2.12,3.21.72-1.07,1.43-2.14,2.12-3.21,1.82-2.84,3.57-5.66,5.24-8.46.59-.98,1.13-1.94,1.69-2.91-.55.97-1.1,1.93-1.69,2.91ZM477.79,174.73c-.47,1.29-.97,2.6-1.5,3.93-.04.1-.09.2-.13.29.04-.1.09-.2.13-.29.54-1.33,1.04-2.64,1.5-3.93.47-1.29.9-2.57,1.29-3.83.16-.5.27-.98.42-1.47-.14.49-.26.98-.42,1.47-.4,1.26-.83,2.53-1.29,3.83ZM480.9,163.56c-.07.38-.17.78-.25,1.17.08-.39.18-.78.25-1.17.42-2.38.63-4.68.63-6.92,0,2.24-.21,4.54-.63,6.92Z"/><rect class="cls-1" x="173.29" y="168.22" width="119.95" height="30.25" transform="translate(-.84 1.08) rotate(-.26)"/><path class="cls-3" d="M180.94,176.15l10.96-.05q5.13-.02,6.09.55c1.14.69,1.48,1.69,1.49,4.25.01,2.21-.23,3.06-1.01,3.66-.42.34-.85.49-1.74.63,2.3.26,2.7.92,2.63,4.36v1.38s-4.46.02-4.46.02v-.78c-.01-1.67-.1-2.21-.46-2.59-.31-.36-.65-.4-2.52-.39l-6.4.03.02,3.77-4.53.02-.07-14.88ZM191.89,183.48q2.28-.06,2.59-.28c.36-.22.49-.67.48-1.61,0-1-.19-1.43-.65-1.63-.34-.13-.38-.13-2.43-.14l-6.38.03.02,3.66,6.38-.03Z"/><path class="cls-3" d="M217.03,188.34l-9.84.05-1.26,2.53-5.18.02,7.81-14.92,7.05-.03,7.86,14.85-5.15.02-1.28-2.52ZM212.52,179.46h-.89s-2.85,5.66-2.85,5.66l6.65-.03-2.9-5.63Z"/><path class="cls-3" d="M224.84,175.95l10.73-.05c3.79-.02,4.31,0,5.58.26,1.47.28,2.46,1.13,2.91,2.51.34,1.05.43,2.01.44,4.42.02,3.88-.31,5.4-1.4,6.41-1.13,1.03-2.45,1.26-7.47,1.28l-10.73.05-.07-14.88ZM235.67,186.99c4.11-.02,4.39-.24,4.38-3.61,0-1.83-.17-2.65-.62-3.14-.47-.53-1.07-.62-3.84-.61l-6.27.03.03,7.36,6.31-.03Z"/><path class="cls-3" d="M260.09,188.15l-9.84.05-1.26,2.53-5.18.02,7.81-14.92,7.05-.03,7.86,14.85-5.15.02-1.28-2.52ZM255.59,179.26h-.89s-2.85,5.66-2.85,5.66l6.65-.03-2.9-5.63Z"/><path class="cls-3" d="M267.13,175.75l10.96-.05q5.13-.02,6.09.55c1.14.69,1.48,1.69,1.49,4.25.01,2.21-.23,3.06-1.01,3.66-.42.34-.85.49-1.74.63,2.3.26,2.7.92,2.63,4.36v1.38s-4.46.02-4.46.02v-.78c-.01-1.67-.1-2.21-.46-2.59-.31-.36-.65-.4-2.52-.39l-6.4.03.02,3.77-4.53.02-.07-14.88ZM278.07,183.09q2.28-.06,2.59-.28c.36-.22.49-.67.48-1.61,0-1-.19-1.43-.65-1.63-.34-.13-.38-.13-2.43-.14l-6.38.03.02,3.66,6.38-.03Z"/></svg>